<mxfile host="app.diagrams.net" modified="2023-06-03T07:47:32.966Z" agent="Mozilla/5.0 (Windows NT 10.0; Win64; x64) AppleWebKit/537.36 (KHTML, like Gecko) Chrome/113.0.0.0 Safari/537.36 Edg/113.0.1774.57" etag="l0fZtoYfqvclfofI4nP4" version="21.3.7" type="github">
  <diagram name="Page-1" id="b107HEK2Phz2mth-RS3K">
    <mxGraphModel dx="875" dy="451" grid="1" gridSize="10" guides="1" tooltips="1" connect="1" arrows="1" fold="1" page="1" pageScale="1" pageWidth="827" pageHeight="1169" math="0" shadow="0">
      <root>
        <mxCell id="0" />
        <mxCell id="1" parent="0" />
        <mxCell id="oFyOqIoIutALwn0OnRBV-17" style="edgeStyle=orthogonalEdgeStyle;rounded=0;orthogonalLoop=1;jettySize=auto;html=1;" edge="1" parent="1" source="oFyOqIoIutALwn0OnRBV-1" target="oFyOqIoIutALwn0OnRBV-16">
          <mxGeometry relative="1" as="geometry">
            <Array as="points">
              <mxPoint x="250" y="110" />
              <mxPoint x="250" y="110" />
            </Array>
          </mxGeometry>
        </mxCell>
        <mxCell id="oFyOqIoIutALwn0OnRBV-1" value="" style="swimlane;startSize=0;" vertex="1" parent="1">
          <mxGeometry x="40" y="40" width="200" height="310" as="geometry">
            <mxRectangle x="40" y="40" width="50" height="40" as="alternateBounds" />
          </mxGeometry>
        </mxCell>
        <mxCell id="oFyOqIoIutALwn0OnRBV-2" value="Data Layer" style="text;html=1;strokeColor=none;fillColor=none;align=center;verticalAlign=middle;whiteSpace=wrap;rounded=0;" vertex="1" parent="oFyOqIoIutALwn0OnRBV-1">
          <mxGeometry x="10" width="70" height="20" as="geometry" />
        </mxCell>
        <mxCell id="oFyOqIoIutALwn0OnRBV-3" value="Repository" style="rounded=0;whiteSpace=wrap;html=1;" vertex="1" parent="oFyOqIoIutALwn0OnRBV-1">
          <mxGeometry x="40" y="40" width="120" height="60" as="geometry" />
        </mxCell>
        <mxCell id="oFyOqIoIutALwn0OnRBV-4" value="Data Source" style="rounded=0;whiteSpace=wrap;html=1;" vertex="1" parent="oFyOqIoIutALwn0OnRBV-1">
          <mxGeometry x="40" y="120" width="120" height="60" as="geometry" />
        </mxCell>
        <mxCell id="oFyOqIoIutALwn0OnRBV-5" value="Remote" style="whiteSpace=wrap;html=1;aspect=fixed;" vertex="1" parent="oFyOqIoIutALwn0OnRBV-1">
          <mxGeometry x="10" y="200" width="80" height="80" as="geometry" />
        </mxCell>
        <mxCell id="oFyOqIoIutALwn0OnRBV-6" value="Local" style="whiteSpace=wrap;html=1;aspect=fixed;" vertex="1" parent="oFyOqIoIutALwn0OnRBV-1">
          <mxGeometry x="110" y="200" width="80" height="80" as="geometry" />
        </mxCell>
        <mxCell id="oFyOqIoIutALwn0OnRBV-7" value="" style="swimlane;startSize=0;" vertex="1" parent="1">
          <mxGeometry x="400" y="40" width="160" height="290" as="geometry" />
        </mxCell>
        <mxCell id="oFyOqIoIutALwn0OnRBV-8" value="UI Layer" style="text;html=1;strokeColor=none;fillColor=none;align=center;verticalAlign=middle;whiteSpace=wrap;rounded=0;" vertex="1" parent="oFyOqIoIutALwn0OnRBV-7">
          <mxGeometry x="10" width="60" height="20" as="geometry" />
        </mxCell>
        <mxCell id="oFyOqIoIutALwn0OnRBV-10" value="" style="swimlane;startSize=0;" vertex="1" parent="oFyOqIoIutALwn0OnRBV-7">
          <mxGeometry x="10" y="30" width="140" height="100" as="geometry">
            <mxRectangle x="10" y="30" width="140" height="40" as="alternateBounds" />
          </mxGeometry>
        </mxCell>
        <mxCell id="oFyOqIoIutALwn0OnRBV-12" value="Activity" style="text;html=1;strokeColor=none;fillColor=none;align=center;verticalAlign=middle;whiteSpace=wrap;rounded=0;" vertex="1" parent="oFyOqIoIutALwn0OnRBV-10">
          <mxGeometry x="10" width="60" height="20" as="geometry" />
        </mxCell>
        <mxCell id="oFyOqIoIutALwn0OnRBV-13" value="Fragments" style="rounded=0;whiteSpace=wrap;html=1;" vertex="1" parent="oFyOqIoIutALwn0OnRBV-10">
          <mxGeometry x="10" y="25" width="120" height="60" as="geometry" />
        </mxCell>
        <mxCell id="oFyOqIoIutALwn0OnRBV-15" value="View Model" style="rounded=0;whiteSpace=wrap;html=1;" vertex="1" parent="oFyOqIoIutALwn0OnRBV-7">
          <mxGeometry x="20" y="150" width="120" height="60" as="geometry" />
        </mxCell>
        <mxCell id="oFyOqIoIutALwn0OnRBV-20" value="UI Component" style="rounded=0;whiteSpace=wrap;html=1;" vertex="1" parent="oFyOqIoIutALwn0OnRBV-7">
          <mxGeometry x="20" y="220" width="120" height="60" as="geometry" />
        </mxCell>
        <mxCell id="oFyOqIoIutALwn0OnRBV-19" style="edgeStyle=orthogonalEdgeStyle;rounded=0;orthogonalLoop=1;jettySize=auto;html=1;entryX=0;entryY=0.269;entryDx=0;entryDy=0;entryPerimeter=0;" edge="1" parent="1" source="oFyOqIoIutALwn0OnRBV-16" target="oFyOqIoIutALwn0OnRBV-7">
          <mxGeometry relative="1" as="geometry" />
        </mxCell>
        <mxCell id="oFyOqIoIutALwn0OnRBV-16" value="Dependency Injection" style="rounded=0;whiteSpace=wrap;html=1;" vertex="1" parent="1">
          <mxGeometry x="260" y="80" width="120" height="60" as="geometry" />
        </mxCell>
      </root>
    </mxGraphModel>
  </diagram>
</mxfile>
